<?xml version="1.0" encoding="UTF-8"?>
<svg version="1.1" xmlns="http://www.w3.org/2000/svg" width="48" height="48">
<path d="M0 0 C2.359375 0.1875 2.359375 0.1875 5 1 C8.62102542 6.96404187 9.55104701 14.15346687 10 21 C10.81984375 20.57847656 11.6396875 20.15695313 12.484375 19.72265625 C13.56203125 19.17480469 14.6396875 18.62695312 15.75 18.0625 C16.81734375 17.51722656 17.8846875 16.97195312 18.984375 16.41015625 C21.38445885 15.28783725 23.41856752 14.49498341 26 14 C27.15740129 21.44043684 23.23059529 26.13600941 19 32 C18.67 32.33 18.34 32.66 18 33 C20.31 33.99 22.62 34.98 25 36 C24.875 37.875 24.875 37.875 24 40 C20.26602153 41.69726294 17.07842654 42.23990744 13 42 C13.66 43.65 14.32 45.3 15 47 C4 47 4 47 1.4375 46.4375 C0.633125 46.293125 -0.17125 46.14875 -1 46 C-1.33 46.33 -1.66 46.66 -2 47 C-3.51928038 47.07179964 -5.04167482 47.08392007 -6.5625 47.0625 C-7.38878906 47.05347656 -8.21507812 47.04445312 -9.06640625 47.03515625 C-9.70449219 47.02355469 -10.34257812 47.01195312 -11 47 C-10.34 45.35 -9.68 43.7 -9 42 C-10.85625 41.814375 -10.85625 41.814375 -12.75 41.625 C-15.8762197 41.24253695 -18.28879237 40.69450477 -21 39 C-21 38.01 -21 37.02 -21 36 C-18.69 35.01 -16.38 34.02 -14 33 C-14.49371094 32.30132812 -14.98742187 31.60265625 -15.49609375 30.8828125 C-16.13675781 29.97273438 -16.77742188 29.06265625 -17.4375 28.125 C-18.07558594 27.22007813 -18.71367187 26.31515625 -19.37109375 25.3828125 C-22.12089613 21.36031982 -22.09026465 18.87429096 -22 14 C-19.89411299 14.78707902 -17.79034384 15.57982626 -15.6875 16.375 C-14.51574219 16.81585937 -13.34398437 17.25671875 -12.13671875 17.7109375 C-9 19 -9 19 -6 21 C-5.85304688 19.85724609 -5.85304688 19.85724609 -5.703125 18.69140625 C-4.71553885 11.87195358 -3.18285413 6.11849629 0 0 Z " fill="#F7FDF7" transform="translate(22,0)"/>
<path d="M0 0 C0.66 0 1.32 0 2 0 C5.68494027 7.52341971 5.28710687 14.83340455 5 23 C5.73605469 22.43410156 6.47210937 21.86820313 7.23046875 21.28515625 C8.20628906 20.55167969 9.18210937 19.81820313 10.1875 19.0625 C11.15042969 18.33160156 12.11335938 17.60070312 13.10546875 16.84765625 C15.88959799 15.07047254 17.75667585 14.37354556 21 14 C20.47606693 18.06402139 19.40270223 20.13633304 16.625 23.125 C15.71621094 24.11886719 15.71621094 24.11886719 14.7890625 25.1328125 C13.21323998 26.77744823 11.62045312 28.39942974 10 30 C11.11375 30.12375 12.2275 30.2475 13.375 30.375 C17 31 17 31 19 33 C16.47524538 34.26237731 14.68799534 34.09856404 11.875 34.0625 C10.96492188 34.05347656 10.05484375 34.04445312 9.1171875 34.03515625 C8.41851563 34.02355469 7.71984375 34.01195312 7 34 C7.66 35.65 8.32 37.3 9 39 C5.34683329 37.75023244 4.21934164 37.32901247 2 34 C1.34 34 0.68 34 0 34 C-0.825 34.825 -1.65 35.65 -2.5 36.5 C-3.325 37.325 -4.15 38.15 -5 39 C-5.66 39 -6.32 39 -7 39 C-6.34 37.35 -5.68 35.7 -5 34 C-8.63 34 -12.26 34 -16 34 C-16.33 33.34 -16.66 32.68 -17 32 C-13.86501708 30.14223235 -11.62528568 29.79859524 -8 30 C-8.721875 29.29875 -9.44375 28.5975 -10.1875 27.875 C-18.5169702 19.47433775 -18.5169702 19.47433775 -19 14 C-12.31636048 15.27984587 -8.13175381 18.6479004 -3 23 C-3.05220703 21.515 -3.05220703 21.515 -3.10546875 20 C-3.28134511 12.76067233 -3.25255905 6.64064138 0 0 Z " fill="#53904F" transform="translate(23,5)"/>
<path d="M0 0 C0.66 0 1.32 0 2 0 C2.33 1.65 2.66 3.3 3 5 C1.02 5.99 1.02 5.99 -1 7 C-1.33 6.34 -1.66 5.68 -2 5 C-1.0625 2.375 -1.0625 2.375 0 0 Z " fill="#589754" transform="translate(23,5)"/>
</svg>
